<svg width="512" height="512" xmlns="http://www.w3.org/2000/svg" style="user-select: auto;">

 <g>
  <title>background</title>
  <rect fill="none" id="canvas_background" height="402" width="582" y="-1" x="-1"/>
 </g>
 <g>
  <title>Layer 1</title>
  <path style="user-select: auto;" fill="#4397c7" id="svg_2" d="m171.77,484.5l168.46,0c38.84,0 70.43,-31.6 70.43,-70.43l0,-205.31c23.42,-8.42 40.21,-30.85 40.21,-57.13l0,-1.27c0,-33.47 -27.23,-60.7 -60.7,-60.7l-64.86,0c-3.79,-34.9 -33.42,-62.16 -69.31,-62.16s-65.52,27.26 -69.31,62.16l-64.86,0c-33.47,0 -60.7,27.23 -60.7,60.7l0,1.27c0,26.28 16.79,48.71 40.21,57.13l0,205.31c0,38.83 31.59,70.43 70.43,70.43zm206.89,-70.43c0,21.19 -17.24,38.43 -38.43,38.43l-168.46,0c-21.19,0 -38.43,-17.24 -38.43,-38.43l0,-201.75l245.33,0l0,201.75l-0.01,0zm-122.66,-354.57c18.21,0 33.45,12.97 36.96,30.16l-73.93,0c3.52,-17.19 18.76,-30.16 36.97,-30.16zm-162.87,90.86c0,-15.83 12.87,-28.7 28.7,-28.7l80.45,0l107.45,0l80.45,0c15.82,0 28.7,12.87 28.7,28.7l0,1.27c0,15.83 -12.87,28.7 -28.7,28.7l-268.35,0c-15.82,0 -28.7,-12.87 -28.7,-28.7l0,-1.27z" class="st0"/>
  <path fill="#4397c7" id="svg_3" d="m214.6,407.05c8.84,0 16,-7.16 16,-16l0,-117.27c0,-8.84 -7.16,-16 -16,-16s-16,7.16 -16,16l0,117.27c0,8.83 7.16,16 16,16z" class="st0"/>
  <path style="user-select: auto;" fill="#4397c7" id="svg_4" d="m297.4,407.05c8.84,0 16,-7.16 16,-16l0,-117.27c0,-8.84 -7.16,-16 -16,-16s-16,7.16 -16,16l0,117.27c0,8.83 7.17,16 16,16z" class="st0"/>
 </g>
</svg>