<svg width="24.000000000000004" height="24.000000000000004" xmlns="http://www.w3.org/2000/svg" style="user-select: auto;">

 <g>
  <title>background</title>
  <rect fill="none" id="canvas_background" height="402" width="582" y="-1" x="-1"/>
 </g>
 <g>
  <title>Layer 1</title>
  <path style="user-select: auto;" fill="#4397c7" id="svg_2" d="m12,20c-0.195,0 -0.391,-0.057 -0.561,-0.172c-0.225,-0.151 -5.508,-3.73 -7.146,-5.371c-1.831,-1.831 -2.043,-3.777 -2.043,-5.082c0,-2.964 2.411,-5.375 5.375,-5.375c1.802,0 3.398,0.891 4.375,2.256c0.977,-1.365 2.573,-2.256 4.375,-2.256c2.964,0 5.375,2.411 5.375,5.375c0,1.305 -0.212,3.251 -2.043,5.082c-1.641,1.641 -6.923,5.22 -7.146,5.371c-0.17,0.115 -0.366,0.172 -0.561,0.172zm-4.375,-14c-1.861,0 -3.375,1.514 -3.375,3.375c0,1.093 0.173,2.384 1.457,3.668c1.212,1.212 4.883,3.775 6.293,4.746c1.41,-0.971 5.081,-3.534 6.293,-4.746c1.284,-1.284 1.457,-2.575 1.457,-3.668c0,-1.861 -1.514,-3.375 -3.375,-3.375s-3.375,1.514 -3.375,3.375c0,0.552 -0.447,1 -1,1s-1,-0.448 -1,-1c0,-1.861 -1.514,-3.375 -3.375,-3.375z"/>
 </g>
</svg>