<svg width="1696.162" height="1696.143" xmlns="http://www.w3.org/2000/svg" style="user-select: auto;">

 <g>
  <title>background</title>
  <rect fill="none" id="canvas_background" height="402" width="582" y="-1" x="-1"/>
 </g>
 <g>
  <title>Layer 1</title>
  <path style="user-select: auto;" fill="#4397c7" id="svg_1" d="m1648.016,305.367l-257.221,-257.218c-31.048,-31.051 -72.329,-48.149 -116.24,-48.149c-43.907,0 -85.188,17.098 -116.236,48.148l-1076.734,1076.718c-10.22,10.22 -16.808,23.511 -18.75,37.833l-62.234,458.487c-2.774,20.448 4.161,41.015 18.753,55.605c12.473,12.473 29.313,19.352 46.714,19.352c2.952,0 5.923,-0.197 8.891,-0.601l458.488,-62.231c14.324,-1.945 27.615,-8.529 37.835,-18.752l1076.734,-1076.715c31.049,-31.048 48.146,-72.33 48.146,-116.237c0,-43.911 -17.098,-85.192 -48.146,-116.24zm-1154.418,1199.999l-350.381,47.558l47.56,-350.376l763.003,-762.991l302.818,302.819l-763,762.99zm1060.977,-1060.962l-204.536,204.533l-302.821,-302.818l204.535,-204.532c8.22,-8.218 17.814,-9.446 22.802,-9.446c4.988,0 14.582,1.228 22.803,9.446l257.221,257.218c8.217,8.217 9.443,17.812 9.443,22.799s-1.227,14.582 -9.447,22.8z"/>
 </g>
</svg>