<svg width="90.99999999999999" height="90.99999999999999" xmlns="http://www.w3.org/2000/svg" style="user-select: auto;">

 <g>
  <title>background</title>
  <rect fill="#cc3e55" id="canvas_background" height="93" width="93" y="-1" x="-1"/>
 </g>
 <g>
  <title>Layer 1</title>
  <path id="svg_2" fill="#ffffff" d="m57.264,40.626c0,-6.208 -5.053,-11.259 -11.262,-11.259c-6.209,0 -11.262,5.051 -11.262,11.259c0,6.21 5.053,11.263 11.262,11.263c6.209,0 11.262,-5.053 11.262,-11.263zm-19.124,0c0,-4.333 3.527,-7.859 7.862,-7.859s7.861,3.525 7.861,7.859c0,4.335 -3.526,7.862 -7.861,7.862s-7.862,-3.527 -7.862,-7.862z"/>
  <path style="user-select: auto;" id="svg_3" fill="#ffffff" d="m46,76.234l1.225,-1.271c0.857,-0.892 21.017,-21.952 21.017,-33.845c0,-12.264 -9.978,-22.242 -22.241,-22.242c-12.262,0 -22.238,9.978 -22.238,22.242c0,11.893 20.156,32.953 21.014,33.844l1.223,1.272zm0,-53.956c10.389,0 18.841,8.452 18.841,18.841c0,8.156 -12.622,23.473 -18.841,30.188c-6.218,-6.713 -18.838,-22.025 -18.838,-30.188c0,-10.389 8.451,-18.841 18.838,-18.841z"/>
 </g>
</svg>