<svg width="91" height="91" xmlns="http://www.w3.org/2000/svg" style="user-select: auto;">

 <g>
  <title>background</title>
  <rect fill="none" id="canvas_background" height="402" width="582" y="-1" x="-1"/>
 </g>
 <g>
  <title>Layer 1</title>
  <path style="user-select: auto;" id="svg_2" fill="#cc3e55" d="m68.396,39.138c0,-12.045 -9.8,-21.845 -21.845,-21.845c-12.044,0 -21.844,9.8 -21.844,21.845c0,9.825 6.735,18.549 16.145,21.093l1.697,4.465c-5.103,0.368 -13.081,1.606 -13.081,5.739c0,5.731 15.334,5.897 17.083,5.897s17.083,-0.166 17.083,-5.897c0,-4.157 -8.07,-5.385 -13.169,-5.746l1.615,-4.413c9.509,-2.484 16.316,-11.224 16.316,-21.138zm-8.284,31.297c-1.054,0.985 -5.977,2.497 -13.562,2.497c-7.584,0 -12.507,-1.512 -13.562,-2.497c0.922,-0.86 4.798,-2.122 10.819,-2.427l1.153,3.033c0.251,0.66 0.883,1.096 1.589,1.096c0.003,0 0.007,0 0.011,0c0.709,-0.005 1.342,-0.449 1.586,-1.116l1.104,-3.015c6.047,0.301 9.938,1.566 10.862,2.429zm-13.561,-5.896c-0.099,0 -0.245,0.001 -0.423,0.003l-2.415,-6.353c-0.202,-0.533 -0.659,-0.93 -1.217,-1.055c-8.337,-1.87 -14.389,-9.438 -14.389,-17.997c0,-10.17 8.273,-18.444 18.443,-18.444s18.444,8.274 18.444,18.444c0,8.641 -6.121,16.225 -14.555,18.033c-0.57,0.122 -1.039,0.529 -1.24,1.078l-2.303,6.292c-0.139,0 -0.262,-0.001 -0.345,-0.001z"/>
  <path style="user-select: auto;" id="svg_3" fill="#cc3e55" d="m56.458,39.138c0,-5.463 -4.444,-9.908 -9.907,-9.908s-9.907,4.445 -9.907,9.908s4.444,9.907 9.907,9.907s9.907,-4.444 9.907,-9.907zm-9.907,6.507c-3.588,0 -6.507,-2.919 -6.507,-6.507c0,-3.589 2.919,-6.508 6.507,-6.508c3.589,0 6.507,2.919 6.507,6.508c0,3.588 -2.918,6.507 -6.507,6.507z"/>
 </g>
</svg>