<svg width="95.99999999999999" height="95.99999999999999" xmlns="http://www.w3.org/2000/svg" style="user-select: auto;">
 <g>
  <title>background</title>
  <rect x="-1" y="-1" width="6.522968" height="6.522968" id="canvas_background" fill="none"/>
 </g>

 <g>
  <title>Layer 1</title>
  <path style="user-select: auto;" d="m59.859,16l5.555,8.438l2.305,3.562l4.281,0l12,0c2.168,0 4,1.889 4,4.125l0,43.938c0,2.21 -1.757,3.938 -4,3.938l-72,0c-2.206,0 -4,-1.794 -4,-4l0,-43.939c0,-2.239 1.794,-4.062 4,-4.062l12,0l4.281,0l2.375,-3.562l5.625,-8.438l23.719,0m4,-8l-32,0l-8,12l-12,0c-6.63,0 -12,5.434 -12,12.062l0,43.938c0,6.63 5.37,12 12,12l72,0c6.63,0 12,-5.309 12,-11.938l0,-43.938c0,-6.63 -5.37,-12.125 -12,-12.125l-12,0l-8,-11.999l0,0z" id="svg_1" fill="#ffffff"/>
  <path style="user-select: auto;" d="m48,40c6.617,0 12,5.383 12,12s-5.384,12 -12,12c-6.617,0 -12,-5.383 -12,-12s5.382,-12 12,-12m0,-8c-11.046,0 -20,8.955 -20,20s8.955,20 20,20c11.046,0 20,-8.954 20,-20s-8.954,-20 -20,-20l0,0z" id="svg_2" fill="#ffffff"/>
 </g>
</svg>