<svg width="48" height="48" xmlns="http://www.w3.org/2000/svg" style="user-select: auto;">
 <title style="user-select: auto;"/>

 <g>
  <title>background</title>
  <rect fill="none" id="canvas_background" height="402" width="582" y="-1" x="-1"/>
 </g>
 <g>
  <title>Layer 1</title>
  <path fill="#ffffff" style="user-select: auto;" id="svg_1" d="m40,40l0,-38a2,2 0 0 0 -2,-2l-36,0a2,2 0 0 0 -2,2l0,38a2,2 0 0 0 2,2l36,0a2,2 0 0 0 2,-2zm-38,-38l36,0l0,25.59l-6.29,-6.29a1,1 0 0 0 -1.41,0l-6.3,6.29l-7.21,-7.21a1,1 0 0 0 -1.41,0l-13.38,13.36l0,-31.74zm0,38l0,-3.43l14.08,-14.08l17.51,17.51l-31.59,0zm23.41,-11l5.59,-5.59l7,7l0,9.59l-1.59,0l-11,-11z"/>
  <path fill="#ffffff" style="user-select: auto;" id="svg_2" d="m46,6l-4,0l0,2l4,0l0,38l-36,0l0,-2l-2,0l0,2a2,2 0 0 0 2,2l36,0a2,2 0 0 0 2,-2l0,-38a2,2 0 0 0 -2,-2z"/>
  <path fill="#ffffff" style="user-select: auto;" id="svg_3" d="m22,18a6,6 0 1 0 -6,-6a6,6 0 0 0 6,6zm0,-10a4,4 0 1 1 -4,4a4,4 0 0 1 4,-4z"/>
 </g>
</svg>