<svg width="512" height="512" xmlns="http://www.w3.org/2000/svg" style="user-select: auto;">

 <g>
  <title>background</title>
  <rect fill="none" id="canvas_background" height="402" width="582" y="-1" x="-1"/>
 </g>
 <g>
  <title>Layer 1</title>
  <path style="user-select: auto;" fill="#ffffff" id="svg_3" d="m283.693,492.847l-54.433,0c-14.972,0 -27.153,-12.177 -27.153,-27.144l0,-53.9c-19.271,-6.774 -37.417,-17.271 -52.977,-30.643l-46.764,26.991c-4.106,2.361 -8.772,3.605 -13.503,3.606c-9.703,0 -18.727,-5.173 -23.55,-13.5l-27.237,-47.184c-7.457,-12.935 -3.004,-29.55 9.925,-37.04l46.741,-26.958c-1.903,-10.071 -2.867,-20.341 -2.867,-30.6c0,-10.258 0.963,-20.527 2.867,-30.6l-46.73,-26.95c-12.972,-7.516 -17.423,-24.157 -9.933,-37.104l27.23,-47.121c4.835,-8.347 13.859,-13.527 23.553,-13.527c4.743,0 9.417,1.257 13.517,3.635l46.754,26.946c15.576,-13.353 33.724,-23.837 52.974,-30.604l0,-53.9c0,-14.968 12.181,-27.145 27.153,-27.145l54.434,0c14.974,0 27.155,12.177 27.155,27.145l0,53.899c19.343,6.793 37.492,17.274 52.983,30.6l46.761,-26.951c4.095,-2.369 8.77,-3.625 13.51,-3.625c9.693,0 18.708,5.185 23.524,13.531l27.25,47.118c7.477,12.977 3.021,29.615 -9.928,37.1l-46.738,26.955c1.89,10.021 2.846,20.291 2.846,30.599c0,10.388 -0.953,20.659 -2.839,30.603l46.726,26.948c6.236,3.572 10.721,9.399 12.611,16.398c1.898,7.03 0.949,14.362 -2.674,20.646l-27.233,47.178c-4.827,8.335 -13.847,13.508 -23.544,13.509c-4.729,0 -9.396,-1.244 -13.499,-3.597l-46.775,-27c-15.553,13.379 -33.701,23.863 -52.98,30.605l0,53.937c-0.001,14.967 -12.183,27.144 -27.157,27.144zm-133.734,-126.62c1.636,0 3.259,0.598 4.526,1.756c16.143,14.748 35.631,26.02 56.358,32.597c2.787,0.885 4.68,3.472 4.68,6.395l0,58.729c0,7.569 6.162,13.728 13.736,13.728l54.434,0c7.576,0 13.738,-6.158 13.738,-13.728l0,-58.774c0,-2.928 1.899,-5.518 4.691,-6.397c20.731,-6.537 40.215,-17.791 56.344,-32.546c2.159,-1.974 5.348,-2.323 7.882,-0.86l50.947,29.407c2.058,1.18 4.417,1.809 6.807,1.809c4.927,-0.001 9.499,-2.609 11.931,-6.808l27.227,-47.166c1.827,-3.17 2.305,-6.88 1.343,-10.442c-0.954,-3.533 -3.208,-6.468 -6.345,-8.265l-50.938,-29.378c-2.539,-1.465 -3.834,-4.408 -3.196,-7.27c2.334,-10.482 3.518,-21.429 3.518,-32.536c0,-11.004 -1.185,-21.955 -3.521,-32.55c-0.63,-2.857 0.664,-5.794 3.199,-7.256l50.921,-29.367c6.547,-3.783 8.8,-12.207 5.017,-18.773l-27.247,-47.114c-2.432,-4.213 -6.992,-6.826 -11.907,-6.826c-2.383,0 -4.734,0.632 -6.8,1.827l-50.958,29.37c-2.533,1.46 -5.721,1.11 -7.879,-0.864c-16.047,-14.687 -35.533,-25.941 -56.354,-32.548c-2.786,-0.885 -4.68,-3.472 -4.68,-6.395l0,-58.731c0,-7.569 -6.162,-13.729 -13.738,-13.729l-54.435,0c-7.574,0 -13.736,6.159 -13.736,13.729l0,58.729c0,2.923 -1.893,5.51 -4.68,6.395c-20.706,6.569 -40.196,17.828 -56.366,32.559c-2.157,1.967 -5.339,2.311 -7.867,0.854l-50.948,-29.363c-2.073,-1.203 -4.419,-1.834 -6.801,-1.834c-4.924,0 -9.5,2.617 -11.94,6.83l-27.228,47.118c-3.789,6.55 -1.531,14.97 5.033,18.772l50.909,29.36c2.535,1.462 3.83,4.398 3.2,7.256c-2.351,10.662 -3.542,21.613 -3.542,32.55c0,10.938 1.192,21.889 3.542,32.55c0.63,2.857 -0.665,5.794 -3.199,7.256l-50.92,29.368c-6.53,3.782 -8.786,12.184 -5.018,18.72l27.229,47.172c2.428,4.19 7.003,6.799 11.936,6.799c2.388,0 4.742,-0.628 6.807,-1.814l50.938,-29.401c1.043,-0.606 2.2,-0.9 3.35,-0.9z"/>
  <path style="user-select: auto;" fill="#ffffff" id="svg_5" d="m256.491,337.764c-44.857,0 -81.351,-36.465 -81.351,-81.287c0,-44.821 36.494,-81.286 81.351,-81.286c44.842,0 81.323,36.465 81.323,81.286c0,44.822 -36.481,81.287 -81.323,81.287zm0,-149.158c-37.459,0 -67.934,30.446 -67.934,67.87s30.475,67.871 67.934,67.871c37.444,0 67.907,-30.447 67.907,-67.871s-30.462,-67.87 -67.907,-67.87z"/>
 </g>
</svg>