<svg width="91" height="91" xmlns="http://www.w3.org/2000/svg" style="user-select: auto;">

 <g>
  <title>background</title>
  <rect fill="none" id="canvas_background" height="402" width="582" y="-1" x="-1"/>
 </g>
 <g>
  <title>Layer 1</title>
  <path style="user-select: auto;" id="svg_2" fill="#ffffff" d="m72.908,25.376c-0.5,-0.307 -1.122,-0.336 -1.647,-0.076l-4.477,2.223c0.021,-0.213 0.058,-0.432 0.058,-0.635c0,-6.548 -5.328,-11.875 -11.875,-11.875s-11.875,5.327 -11.875,11.875c0,0.232 0.039,0.479 0.065,0.722l-6.915,-2.393c-0.432,-0.149 -0.906,-0.118 -1.316,0.086l-13.369,6.683c-0.575,0.287 -0.939,0.876 -0.939,1.52l0,41.349c0,0.571 0.287,1.105 0.766,1.42c0.477,0.314 1.082,0.368 1.605,0.142l13.027,-5.596l18.316,7.385c0.204,0.083 0.42,0.124 0.636,0.124c0.256,0 0.511,-0.058 0.746,-0.173l17.317,-8.457c0.588,-0.286 0.959,-0.885 0.955,-1.538l-0.27,-41.349c-0.003,-0.587 -0.309,-1.13 -0.808,-1.437zm-17.941,-6.963c4.673,0 8.475,3.802 8.475,8.475c0,3.22 -4.783,9.596 -8.475,13.688c-3.691,-4.092 -8.475,-10.468 -8.475,-13.688c0,-4.673 3.802,-8.475 8.475,-8.475zm-1.7,25.334l0,30.362l-15.88,-6.403l0,-6.648c1.816,-1.954 6.682,-7.538 6.682,-11.305c0,-4.04 -2.873,-7.421 -6.682,-8.209l0,-12.334l7.042,2.438c2.366,4.958 7.193,10.341 8.838,12.099zm-17.58,1.024c2.747,0 4.981,2.235 4.981,4.982c0,1.755 -2.615,5.409 -4.981,8.112c-2.367,-2.703 -4.982,-6.357 -4.982,-8.112c-0.001,-2.747 2.234,-4.982 4.982,-4.982zm-11.669,-10.215l9.969,-4.982l0,11.972c-3.811,0.788 -6.683,4.169 -6.683,8.208c0,3.767 4.864,9.349 6.683,11.304l0,6.935l-9.969,4.282l0,-37.719zm32.649,39.35l0,-30.159c1.601,-1.711 6.228,-6.855 8.655,-11.703l5.012,-2.488l0.244,37.557l-13.911,6.793z"/>
  <path id="svg_3" fill="#ffffff" d="m35.686,51.863c1.107,0 2.01,-0.901 2.01,-2.009c0,-1.108 -0.902,-2.011 -2.01,-2.011s-2.008,0.902 -2.008,2.011c0,1.108 0.9,2.009 2.008,2.009z"/>
  <path style="user-select: auto;" id="svg_4" fill="#ffffff" d="m61.404,26.644c0,-3.549 -2.889,-6.437 -6.438,-6.437s-6.436,2.888 -6.436,6.437s2.887,6.438 6.436,6.438s6.438,-2.89 6.438,-6.438zm-9.472,0c0,-1.674 1.361,-3.036 3.035,-3.036s3.037,1.362 3.037,3.036s-1.363,3.037 -3.037,3.037s-3.035,-1.364 -3.035,-3.037z"/>
 </g>
</svg>