<svg width="91" height="91" xmlns="http://www.w3.org/2000/svg" style="user-select: auto;">

 <g>
  <title>background</title>
  <rect fill="none" id="canvas_background" height="402" width="582" y="-1" x="-1"/>
 </g>
 <g>
  <title>Layer 1</title>
  <path id="svg_2" fill="#ffffff" d="m33.783,53.472c3.699,3.699 8.618,5.736 13.85,5.736c5.232,0 10.15,-2.037 13.851,-5.736c7.635,-7.636 7.634,-20.061 -0.001,-27.698c-3.7,-3.698 -8.619,-5.735 -13.85,-5.735c-5.231,0 -10.15,2.037 -13.85,5.735c-7.636,7.636 -7.636,20.061 0,27.698zm2.418,-25.307c2.019,0.408 4.099,1.177 6.158,2.236c-0.646,0.764 -1.324,1.515 -2.049,2.24c-0.761,0.76 -1.549,1.473 -2.354,2.148c-1.051,-2.044 -1.813,-4.108 -2.223,-6.111c0.153,-0.166 0.293,-0.34 0.453,-0.501c0.005,-0.004 0.011,-0.008 0.015,-0.012zm22.878,22.902c-0.157,0.157 -0.329,0.296 -0.491,0.445c-1.977,-0.402 -4.004,-1.134 -6.016,-2.157c0.668,-0.796 1.374,-1.575 2.126,-2.327c0.718,-0.717 1.46,-1.387 2.214,-2.026c1.033,2.027 1.77,4.071 2.171,6.062c-0.001,0 -0.003,0.001 -0.004,0.003zm-13.733,-18.927c1.423,0.946 2.803,2.041 4.123,3.242l-6.525,6.526c-1.205,-1.325 -2.303,-2.71 -3.252,-4.139c1.04,-0.846 2.052,-1.753 3.023,-2.724c0.935,-0.937 1.812,-1.908 2.631,-2.905zm4.236,15.492c-1.458,-0.963 -2.875,-2.084 -4.232,-3.32l6.523,-6.523c1.232,1.354 2.35,2.766 3.311,4.219c-0.992,0.814 -1.958,1.687 -2.89,2.617c-0.966,0.966 -1.869,1.973 -2.712,3.007zm-6.648,-0.905c1.475,1.353 3.026,2.569 4.623,3.634c-1.129,1.68 -2.085,3.415 -2.857,5.173c-2.654,-0.483 -5.134,-1.615 -7.244,-3.328l5.478,-5.479zm7.546,5.383c1.479,0.788 2.975,1.44 4.467,1.945c-2.035,1.033 -4.275,1.617 -6.606,1.718c0.612,-1.241 1.325,-2.466 2.139,-3.663zm9.18,-9.213c1.34,-0.922 2.715,-1.722 4.108,-2.387c-0.134,2.463 -0.825,4.895 -2.075,7.1c-0.517,-1.573 -1.2,-3.153 -2.033,-4.713zm-1.751,-2.919c-1.062,-1.592 -2.274,-3.137 -3.621,-4.605l5.927,-5.928c1.783,2.201 2.893,4.766 3.349,7.423c-1.926,0.814 -3.822,1.863 -5.655,3.11zm-6.036,-6.999c-1.436,-1.315 -2.943,-2.517 -4.502,-3.563c1.256,-1.852 2.311,-3.768 3.127,-5.713c2.68,0.477 5.185,1.611 7.313,3.339l-5.938,5.937zm-7.423,-5.314c-1.603,-0.862 -3.224,-1.562 -4.837,-2.091c2.201,-1.261 4.672,-1.979 7.257,-2.1c-0.671,1.422 -1.481,2.825 -2.42,4.191zm-9.235,9.203c-1.219,0.828 -2.467,1.552 -3.732,2.171c0.084,-2.324 0.654,-4.632 1.73,-6.751c0.517,1.528 1.187,3.063 2.002,4.58zm-3.471,5.799c1.774,-0.773 3.524,-1.736 5.219,-2.876c1.051,1.566 2.256,3.079 3.577,4.521l-5.489,5.49c-1.72,-2.122 -2.822,-4.58 -3.307,-7.135z"/>
  <path style="user-select: auto;" id="svg_3" fill="#ffffff" d="m64.334,58.86l2.602,2.601l2.404,-2.404l-4.967,-4.966l-1.201,1.202c-4.161,4.162 -9.693,6.453 -15.579,6.453s-11.419,-2.291 -15.579,-6.453c-8.59,-8.59 -8.59,-22.567 0,-31.159l1.201,-1.203l-4.926,-4.925l-2.404,2.404l2.563,2.562c-8.738,9.979 -8.35,25.214 1.162,34.726c4.018,4.018 9.145,6.519 14.689,7.232l0,7.503l-7.47,0l0,3.4l18.34,0l0,-3.4l-7.47,0l0,-7.291c6.185,-0.026 12.026,-2.239 16.635,-6.282z"/>
 </g>
</svg>