<svg width="500.00000000000006" height="500.00000000000006" xmlns="http://www.w3.org/2000/svg" style="user-select: auto;">

 <g>
  <title>background</title>
  <rect fill="none" id="canvas_background" height="402" width="582" y="-1" x="-1"/>
 </g>
 <g>
  <title>Layer 1</title>
  <path fill="#ffffff" style="user-select: auto;" stroke="null" id="svg_3" d="m249.999998,291.600007c-45.311575,0 -82.213048,-36.901472 -82.213048,-82.213048s36.901472,-82.213048 82.213048,-82.213048s82.213048,36.901472 82.213048,82.213048s-36.901472,82.213048 -82.213048,82.213048zm0,-140.997951c-32.353151,0 -58.699086,26.345935 -58.699086,58.699086s26.345935,58.699086 58.699086,58.699086s58.699086,-26.345935 58.699086,-58.699086s-26.345935,-58.699086 -58.699086,-58.699086z"/>
  <path fill="#ffffff" style="user-select: auto;" id="svg_5" d="m386.9,441.860867l-27.4,0c0,-60.4 -49.1,-109.5 -109.5,-109.5s-109.5,49.1 -109.5,109.5l-27.4,0c0,-75.5 61.4,-136.9 136.9,-136.9s136.9,61.4 136.9,136.9z"/>
 </g>
</svg>